# xmcd
#
# Track frame offsets: 
#        183
#        3260
#        15505
#        31250
#        39780
#        53608
#        67038
#        79165
#        96098
#        100120
#        111730
#        125658
#        134055
#        146740
#        162628
#        174380
#        187130
#        198088
#        205180
#        231930
#
# Disc length: 3421 seconds
#
# Revision: 0
# Processed by: cddbd v1.4PL0 Copyright (c) Steve Scherf et al.
# Submitted via: ExactAudioCopy v0.90b4
#
DISCID=190d5b14
DTITLE=Various Artist - Delta Experimental Projects Compilation Vol. 
DTITLE=1 The Blues  Vol. 2 Spring Poems
DYEAR=1900
DGENRE=Blues
TTITLE0=Baby Please
TTITLE1=Roll Me Over Slow
TTITLE2=Old Hucklebuck
TTITLE3=I'm Black
TTITLE4=Jes' Like A Monkey
TTITLE5=Holy Spirit
TTITLE6=Dozens
TTITLE7=Ol' Man Mose
TTITLE8=Ol' Man Mose
TTITLE9=Same Man All the Time - Policy Talk
TTITLE10=Blind Man In The Tear Gas
TTITLE11=Blue Moon
TTITLE12=Blue Moon
TTITLE13=The Great Big Fish
TTITLE14=The Saucers Are Landing
TTITLE15=The Curse Of The Alpha Stone
TTITLE16=Camptown Races - Catfish Blues
TTITLE17=Beatiful Dreamer
TTITLE18=Southern Dust
TTITLE19=Down
EXTD=
EXTT0=
EXTT1=
EXTT2=
EXTT3=
EXTT4=
EXTT5=
EXTT6=
EXTT7=
EXTT8=
EXTT9=
EXTT10=
EXTT11=
EXTT12=
EXTT13=
EXTT14=
EXTT15=
EXTT16=
EXTT17=
EXTT18=
EXTT19=
PLAYORDER=
